<svg data-v-5f19e91b="" xmlns="http://www.w3.org/2000/svg" width="401" height="83" viewBox="0 0 401 83"><!----> <!----> <!----> <g data-v-5f19e91b="" id="e671664f-3423-a36c-b7df-906b8f6ec682" fill="white" transform="matrix(4.457652290486928,0,0,4.457652290486928,92.43142797046846,1.4247358552915301)"><path d="M2.42 5.77L2.42 13.05L1.12 13.05L1.12 5.77L2.42 5.77ZM1.76 4.45L1.76 4.45L1.76 4.45Q1.41 4.45 1.17 4.22L1.17 4.22L1.17 4.22Q0.92 3.99 0.92 3.60L0.92 3.60L0.92 3.60Q0.92 3.21 1.17 2.97L1.17 2.97L1.17 2.97Q1.41 2.74 1.76 2.74L1.76 2.74L1.76 2.74Q2.11 2.74 2.36 2.97L2.36 2.97L2.36 2.97Q2.60 3.21 2.60 3.60L2.60 3.60L2.60 3.60Q2.60 3.99 2.36 4.22L2.36 4.22L2.36 4.22Q2.11 4.45 1.76 4.45ZM9.37 11.91L9.37 7.31L9.37 7.31Q9.13 7.11 8.68 6.93L8.68 6.93L8.68 6.93Q8.23 6.75 7.70 6.75L7.70 6.75L7.70 6.75Q7.14 6.75 6.74 6.95L6.74 6.95L6.74 6.95Q6.34 7.15 6.09 7.51L6.09 7.51L6.09 7.51Q5.84 7.87 5.73 8.36L5.73 8.36L5.73 8.36Q5.61 8.85 5.61 9.41L5.61 9.41L5.61 9.41Q5.61 10.68 6.24 11.38L6.24 11.38L6.24 11.38Q6.87 12.07 7.92 12.07L7.92 12.07L7.92 12.07Q8.46 12.07 8.81 12.02L8.81 12.02L8.81 12.02Q9.17 11.97 9.37 11.91L9.37 11.91ZM9.37 6.09L9.37 2.41L10.67 2.18L10.67 12.84L10.67 12.84Q10.22 12.96 9.52 13.09L9.52 13.09L9.52 13.09Q8.82 13.22 7.91 13.22L7.91 13.22L7.91 13.22Q7.07 13.22 6.40 12.95L6.40 12.95L6.40 12.95Q5.73 12.68 5.25 12.19L5.25 12.19L5.25 12.19Q4.77 11.70 4.52 11.00L4.52 11.00L4.52 11.00Q4.26 10.29 4.26 9.41L4.26 9.41L4.26 9.41Q4.26 8.57 4.47 7.87L4.47 7.87L4.47 7.87Q4.69 7.17 5.11 6.66L5.11 6.66L5.11 6.66Q5.53 6.16 6.14 5.88L6.14 5.88L6.14 5.88Q6.75 5.60 7.53 5.60L7.53 5.60L7.53 5.60Q8.16 5.60 8.64 5.77L8.64 5.77L8.64 5.77Q9.13 5.94 9.37 6.09L9.37 6.09ZM12.50 9.42L12.50 9.42L12.50 9.42Q12.50 8.46 12.78 7.74L12.78 7.74L12.78 7.74Q13.06 7.01 13.52 6.54L13.52 6.54L13.52 6.54Q13.99 6.06 14.59 5.82L14.59 5.82L14.59 5.82Q15.19 5.59 15.82 5.59L15.82 5.59L15.82 5.59Q17.29 5.59 18.07 6.50L18.07 6.50L18.07 6.50Q18.86 7.42 18.86 9.30L18.86 9.30L18.86 9.30Q18.86 9.38 18.86 9.51L18.86 9.51L18.86 9.51Q18.86 9.65 18.84 9.76L18.84 9.76L13.86 9.76L13.86 9.76Q13.94 10.89 14.52 11.48L14.52 11.48L14.52 11.48Q15.09 12.07 16.31 12.07L16.31 12.07L16.31 12.07Q17.00 12.07 17.46 11.95L17.46 11.95L17.46 11.95Q17.93 11.83 18.17 11.72L18.17 11.72L18.35 12.81L18.35 12.81Q18.12 12.94 17.52 13.08L17.52 13.08L17.52 13.08Q16.93 13.22 16.17 13.22L16.17 13.22L16.17 13.22Q15.22 13.22 14.53 12.93L14.53 12.93L14.53 12.93Q13.83 12.64 13.38 12.14L13.38 12.14L13.38 12.14Q12.94 11.63 12.72 10.94L12.72 10.94L12.72 10.94Q12.50 10.25 12.50 9.42ZM13.89 8.71L17.50 8.71L17.50 8.71Q17.51 7.83 17.06 7.26L17.06 7.26L17.06 7.26Q16.60 6.69 15.81 6.69L15.81 6.69L15.81 6.69Q15.36 6.69 15.02 6.87L15.02 6.87L15.02 6.87Q14.67 7.04 14.43 7.32L14.43 7.32L14.43 7.32Q14.20 7.60 14.06 7.97L14.06 7.97L14.06 7.97Q13.93 8.33 13.89 8.71L13.89 8.71ZM23.20 12.11L23.20 12.11L23.20 12.11Q23.66 12.11 24.02 12.09L24.02 12.09L24.02 12.09Q24.37 12.07 24.61 12.01L24.61 12.01L24.61 9.84L24.61 9.84Q24.47 9.77 24.16 9.72L24.16 9.72L24.16 9.72Q23.84 9.67 23.39 9.67L23.39 9.67L23.39 9.67Q23.10 9.67 22.77 9.72L22.77 9.72L22.77 9.72Q22.44 9.76 22.17 9.89L22.17 9.89L22.17 9.89Q21.90 10.02 21.71 10.25L21.71 10.25L21.71 10.25Q21.53 10.49 21.53 10.86L21.53 10.86L21.53 10.86Q21.53 11.56 21.98 11.84L21.98 11.84L21.98 11.84Q22.43 12.11 23.20 12.11ZM23.09 5.59L23.09 5.59L23.09 5.59Q23.87 5.59 24.41 5.79L24.41 5.79L24.41 5.79Q24.95 5.99 25.28 6.36L25.28 6.36L25.28 6.36Q25.61 6.73 25.75 7.25L25.75 7.25L25.75 7.25Q25.89 7.76 25.89 8.37L25.89 8.37L25.89 12.92L25.89 12.92Q25.72 12.95 25.42 13.00L25.42 13.00L25.42 13.00Q25.12 13.05 24.74 13.09L24.74 13.09L24.74 13.09Q24.36 13.13 23.92 13.17L23.92 13.17L23.92 13.17Q23.48 13.20 23.04 13.20L23.04 13.20L23.04 13.20Q22.43 13.20 21.91 13.08L21.91 13.08L21.91 13.08Q21.39 12.95 21.01 12.68L21.01 12.68L21.01 12.68Q20.64 12.40 20.43 11.96L20.43 11.96L20.43 11.96Q20.22 11.51 20.22 10.88L20.22 10.88L20.22 10.88Q20.22 10.28 20.46 9.84L20.46 9.84L20.46 9.84Q20.71 9.41 21.13 9.14L21.13 9.14L21.13 9.14Q21.55 8.88 22.11 8.75L22.11 8.75L22.11 8.75Q22.67 8.62 23.28 8.62L23.28 8.62L23.28 8.62Q23.48 8.62 23.69 8.64L23.69 8.64L23.69 8.64Q23.90 8.67 24.09 8.70L24.09 8.70L24.09 8.70Q24.28 8.74 24.42 8.76L24.42 8.76L24.42 8.76Q24.56 8.79 24.61 8.81L24.61 8.81L24.61 8.44L24.61 8.44Q24.61 8.12 24.54 7.80L24.54 7.80L24.54 7.80Q24.47 7.49 24.29 7.25L24.29 7.25L24.29 7.25Q24.11 7 23.79 6.85L23.79 6.85L23.79 6.85Q23.48 6.71 22.97 6.71L22.97 6.71L22.97 6.71Q22.33 6.71 21.85 6.80L21.85 6.80L21.85 6.80Q21.36 6.89 21.13 6.99L21.13 6.99L20.97 5.91L20.97 5.91Q21.22 5.80 21.81 5.69L21.81 5.69L21.81 5.69Q22.40 5.59 23.09 5.59ZM29.74 12.11L29.74 12.11L29.74 12.11Q30.53 12.11 30.92 11.90L30.92 11.90L30.92 11.90Q31.30 11.69 31.30 11.23L31.30 11.23L31.30 11.23Q31.30 10.75 30.93 10.47L30.93 10.47L30.93 10.47Q30.55 10.19 29.68 9.84L29.68 9.84L29.68 9.84Q29.26 9.67 28.88 9.50L28.88 9.50L28.88 9.50Q28.49 9.32 28.21 9.09L28.21 9.09L28.21 9.09Q27.93 8.85 27.76 8.51L27.76 8.51L27.76 8.51Q27.59 8.18 27.59 7.69L27.59 7.69L27.59 7.69Q27.59 6.72 28.31 6.15L28.31 6.15L28.31 6.15Q29.02 5.59 30.25 5.59L30.25 5.59L30.25 5.59Q30.56 5.59 30.87 5.62L30.87 5.62L30.87 5.62Q31.18 5.66 31.44 5.71L31.44 5.71L31.44 5.71Q31.71 5.75 31.91 5.81L31.91 5.81L31.91 5.81Q32.12 5.87 32.23 5.91L32.23 5.91L31.99 7.03L31.99 7.03Q31.78 6.92 31.33 6.80L31.33 6.80L31.33 6.80Q30.88 6.68 30.25 6.68L30.25 6.68L30.25 6.68Q29.71 6.68 29.30 6.89L29.30 6.89L29.30 6.89Q28.90 7.11 28.90 7.57L28.90 7.57L28.90 7.57Q28.90 7.81 28.99 7.99L28.99 7.99L28.99 7.99Q29.08 8.18 29.27 8.32L29.27 8.32L29.27 8.32Q29.46 8.47 29.74 8.60L29.74 8.60L29.74 8.60Q30.02 8.72 30.41 8.86L30.41 8.86L30.41 8.86Q30.93 9.06 31.33 9.25L31.33 9.25L31.33 9.25Q31.74 9.44 32.02 9.69L32.02 9.69L32.02 9.69Q32.31 9.94 32.47 10.30L32.47 10.30L32.47 10.30Q32.62 10.65 32.62 11.17L32.62 11.17L32.62 11.17Q32.62 12.18 31.87 12.70L31.87 12.70L31.87 12.70Q31.12 13.22 29.74 13.22L29.74 13.22L29.74 13.22Q28.77 13.22 28.22 13.05L28.22 13.05L28.22 13.05Q27.68 12.89 27.48 12.81L27.48 12.81L27.72 11.69L27.72 11.69Q27.94 11.77 28.43 11.94L28.43 11.94L28.43 11.94Q28.92 12.11 29.74 12.11ZM39.34 9.42L39.34 9.42L39.34 9.42Q39.34 8.15 38.71 7.46L38.71 7.46L38.71 7.46Q38.08 6.78 37.03 6.78L37.03 6.78L37.03 6.78Q36.44 6.78 36.11 6.82L36.11 6.82L36.11 6.82Q35.78 6.86 35.59 6.92L35.59 6.92L35.59 11.51L35.59 11.51Q35.83 11.70 36.27 11.89L36.27 11.89L36.27 11.89Q36.72 12.07 37.25 12.07L37.25 12.07L37.25 12.07Q37.81 12.07 38.21 11.87L38.21 11.87L38.21 11.87Q38.61 11.66 38.86 11.30L38.86 11.30L38.86 11.30Q39.12 10.95 39.23 10.46L39.23 10.46L39.23 10.46Q39.34 9.98 39.34 9.42ZM40.70 9.42L40.70 9.42L40.70 9.42Q40.70 10.25 40.48 10.95L40.48 10.95L40.48 10.95Q40.26 11.65 39.84 12.15L39.84 12.15L39.84 12.15Q39.42 12.66 38.81 12.94L38.81 12.94L38.81 12.94Q38.21 13.22 37.42 13.22L37.42 13.22L37.42 13.22Q36.79 13.22 36.31 13.05L36.31 13.05L36.31 13.05Q35.83 12.88 35.59 12.73L35.59 12.73L35.59 15.64L34.29 15.64L34.29 5.99L34.29 5.99Q34.75 5.88 35.44 5.75L35.44 5.75L35.44 5.75Q36.13 5.61 37.04 5.61L37.04 5.61L37.04 5.61Q37.88 5.61 38.56 5.88L38.56 5.88L38.56 5.88Q39.23 6.15 39.70 6.64L39.70 6.64L39.70 6.64Q40.18 7.13 40.44 7.83L40.44 7.83L40.44 7.83Q40.70 8.54 40.70 9.42ZM45.22 5.61L45.22 5.61L45.22 5.61Q45.39 5.61 45.60 5.63L45.60 5.63L45.60 5.63Q45.82 5.66 46.03 5.69L46.03 5.69L46.03 5.69Q46.24 5.73 46.42 5.76L46.42 5.76L46.42 5.76Q46.59 5.80 46.68 5.82L46.68 5.82L46.45 6.96L46.45 6.96Q46.30 6.90 45.94 6.83L45.94 6.83L45.94 6.83Q45.58 6.75 45.02 6.75L45.02 6.75L45.02 6.75Q44.66 6.75 44.30 6.83L44.30 6.83L44.30 6.83Q43.95 6.90 43.83 6.93L43.83 6.93L43.83 13.05L42.53 13.05L42.53 6.08L42.53 6.08Q42.99 5.91 43.68 5.76L43.68 5.76L43.68 5.76Q44.37 5.61 45.22 5.61ZM47.53 9.42L47.53 9.42L47.53 9.42Q47.53 8.46 47.81 7.74L47.81 7.74L47.81 7.74Q48.09 7.01 48.55 6.54L48.55 6.54L48.55 6.54Q49.01 6.06 49.62 5.82L49.62 5.82L49.62 5.82Q50.22 5.59 50.85 5.59L50.85 5.59L50.85 5.59Q52.32 5.59 53.10 6.50L53.10 6.50L53.10 6.50Q53.89 7.42 53.89 9.30L53.89 9.30L53.89 9.30Q53.89 9.38 53.89 9.51L53.89 9.51L53.89 9.51Q53.89 9.65 53.87 9.76L53.87 9.76L48.89 9.76L48.89 9.76Q48.97 10.89 49.55 11.48L49.55 11.48L49.55 11.48Q50.12 12.07 51.34 12.07L51.34 12.07L51.34 12.07Q52.02 12.07 52.49 11.95L52.49 11.95L52.49 11.95Q52.96 11.83 53.20 11.72L53.20 11.72L53.38 12.81L53.38 12.81Q53.14 12.94 52.55 13.08L52.55 13.08L52.55 13.08Q51.95 13.22 51.20 13.22L51.20 13.22L51.20 13.22Q50.25 13.22 49.55 12.93L49.55 12.93L49.55 12.93Q48.86 12.64 48.41 12.14L48.41 12.14L48.41 12.14Q47.96 11.63 47.75 10.94L47.75 10.94L47.75 10.94Q47.53 10.25 47.53 9.42ZM48.92 8.71L52.53 8.71L52.53 8.71Q52.54 7.83 52.09 7.26L52.09 7.26L52.09 7.26Q51.63 6.69 50.83 6.69L50.83 6.69L50.83 6.69Q50.39 6.69 50.04 6.87L50.04 6.87L50.04 6.87Q49.70 7.04 49.46 7.32L49.46 7.32L49.46 7.32Q49.22 7.60 49.09 7.97L49.09 7.97L49.09 7.97Q48.96 8.33 48.92 8.71L48.92 8.71ZM58.23 12.11L58.23 12.11L58.23 12.11Q58.69 12.11 59.05 12.09L59.05 12.09L59.05 12.09Q59.40 12.07 59.64 12.01L59.64 12.01L59.64 9.84L59.64 9.84Q59.50 9.77 59.19 9.72L59.19 9.72L59.19 9.72Q58.87 9.67 58.42 9.67L58.42 9.67L58.42 9.67Q58.13 9.67 57.80 9.72L57.80 9.72L57.80 9.72Q57.47 9.76 57.20 9.89L57.20 9.89L57.20 9.89Q56.92 10.02 56.74 10.25L56.74 10.25L56.74 10.25Q56.56 10.49 56.56 10.86L56.56 10.86L56.56 10.86Q56.56 11.56 57.01 11.84L57.01 11.84L57.01 11.84Q57.46 12.11 58.23 12.11ZM58.11 5.59L58.11 5.59L58.11 5.59Q58.90 5.59 59.44 5.79L59.44 5.79L59.44 5.79Q59.98 5.99 60.31 6.36L60.31 6.36L60.31 6.36Q60.63 6.73 60.77 7.25L60.77 7.25L60.77 7.25Q60.91 7.76 60.91 8.37L60.91 8.37L60.91 12.92L60.91 12.92Q60.75 12.95 60.45 13.00L60.45 13.00L60.45 13.00Q60.14 13.05 59.77 13.09L59.77 13.09L59.77 13.09Q59.39 13.13 58.95 13.17L58.95 13.17L58.95 13.17Q58.51 13.20 58.07 13.20L58.07 13.20L58.07 13.20Q57.46 13.20 56.94 13.08L56.94 13.08L56.94 13.08Q56.42 12.95 56.04 12.68L56.04 12.68L56.04 12.68Q55.66 12.40 55.45 11.96L55.45 11.96L55.45 11.96Q55.24 11.51 55.24 10.88L55.24 10.88L55.24 10.88Q55.24 10.28 55.49 9.84L55.49 9.84L55.49 9.84Q55.73 9.41 56.15 9.14L56.15 9.14L56.15 9.14Q56.57 8.88 57.13 8.75L57.13 8.75L57.13 8.75Q57.69 8.62 58.31 8.62L58.31 8.62L58.31 8.62Q58.51 8.62 58.72 8.64L58.72 8.64L58.72 8.64Q58.93 8.67 59.12 8.70L59.12 8.70L59.12 8.70Q59.30 8.74 59.44 8.76L59.44 8.76L59.44 8.76Q59.58 8.79 59.64 8.81L59.64 8.81L59.64 8.44L59.64 8.44Q59.64 8.12 59.57 7.80L59.57 7.80L59.57 7.80Q59.50 7.49 59.32 7.25L59.32 7.25L59.32 7.25Q59.14 7 58.82 6.85L58.82 6.85L58.82 6.85Q58.51 6.71 58.00 6.71L58.00 6.71L58.00 6.71Q57.36 6.71 56.88 6.80L56.88 6.80L56.88 6.80Q56.39 6.89 56.15 6.99L56.15 6.99L56 5.91L56 5.91Q56.25 5.80 56.84 5.69L56.84 5.69L56.84 5.69Q57.43 5.59 58.11 5.59ZM67.77 11.91L67.77 7.31L67.77 7.31Q67.54 7.11 67.09 6.93L67.09 6.93L67.09 6.93Q66.64 6.75 66.11 6.75L66.11 6.75L66.11 6.75Q65.55 6.75 65.15 6.95L65.15 6.95L65.15 6.95Q64.75 7.15 64.50 7.51L64.50 7.51L64.50 7.51Q64.25 7.87 64.13 8.36L64.13 8.36L64.13 8.36Q64.02 8.85 64.02 9.41L64.02 9.41L64.02 9.41Q64.02 10.68 64.65 11.38L64.65 11.38L64.65 11.38Q65.28 12.07 66.33 12.07L66.33 12.07L66.33 12.07Q66.86 12.07 67.22 12.02L67.22 12.02L67.22 12.02Q67.58 11.97 67.77 11.91L67.77 11.91ZM67.77 6.09L67.77 2.41L69.08 2.18L69.08 12.84L69.08 12.84Q68.63 12.96 67.93 13.09L67.93 13.09L67.93 13.09Q67.23 13.22 66.32 13.22L66.32 13.22L66.32 13.22Q65.48 13.22 64.81 12.95L64.81 12.95L64.81 12.95Q64.13 12.68 63.66 12.19L63.66 12.19L63.66 12.19Q63.18 11.70 62.92 11.00L62.92 11.00L62.92 11.00Q62.66 10.29 62.66 9.41L62.66 9.41L62.66 9.41Q62.66 8.57 62.88 7.87L62.88 7.87L62.88 7.87Q63.10 7.17 63.52 6.66L63.52 6.66L63.52 6.66Q63.94 6.16 64.55 5.88L64.55 5.88L64.55 5.88Q65.16 5.60 65.94 5.60L65.94 5.60L65.94 5.60Q66.57 5.60 67.05 5.77L67.05 5.77L67.05 5.77Q67.54 5.94 67.77 6.09L67.77 6.09Z"></path></g> <!----> <g data-v-5f19e91b="" id="faf59612-9cff-51fe-4f80-57eda0403df8" transform="matrix(0.9561777750651042,0,0,0.9561777750651042,-8.828885563490132,-5.852620818963622)" stroke="none" fill="white"><g><path d="M49.998,92.669c-5.508,0-10.857-2.647-16.034-5.211c-4.912-2.435-9.553-4.729-13.966-4.729H9.98v-5h10.018   c5.583,0,10.975,2.668,16.186,5.25c4.875,2.412,9.479,4.69,13.814,4.69c4.311,0,8.859-2.267,13.679-4.662   c5.214-2.596,10.604-5.278,16.273-5.278c0.021,0,0.036,0,0.056,0h9.999v5H79.998c-0.016,0-0.025,0-0.041,0   c-4.501,0-9.143,2.311-14.055,4.754C60.779,90.034,55.482,92.669,49.998,92.669z"></path></g><g><path d="M50,6.613c-17.921,0-32.5,14.579-32.5,32.499c0,15.58,11.105,29.003,26.406,31.919l0.594,0.113v-5.09l-0.393-0.086   C31.587,63.225,22.5,51.93,22.5,39.112c0-15.163,12.337-27.499,27.5-27.499s27.5,12.336,27.5,27.499   c0,12.818-9.087,24.113-21.607,26.857L55.5,66.057v5.088l0.594-0.112C71.395,68.115,82.5,54.691,82.5,39.112   C82.5,21.192,67.921,6.613,50,6.613z"></path><polygon points="71.96,52.812 71.96,47.812 66.096,47.812 71.96,41.991 71.96,34.925 62.525,44.308 62.525,35.623 57.525,35.623    57.525,49.271 52.5,54.257 52.5,35.627 47.5,35.627 47.5,54.257 42.475,49.271 42.475,35.623 37.475,35.623 37.475,44.307    28.039,34.924 28.039,41.991 33.905,47.812 28.039,47.812 28.039,52.812 38.944,52.812 47.5,61.3 47.5,83.162 52.5,83.162    52.5,61.3 61.055,52.812  "></polygon></g><g><path fill="#000000" d="M30.919,70.202c-1.584-0.694-3.194-1.297-4.843-1.728c-1.729-0.412-3.577-0.649-5.553-0.688H9.98v5h11.018   c4.386,0,9.396,1.662,14.041,4.084c2.736,1.428,7.786,4.515,7.786,4.515C40.002,76.909,36.141,72.723,30.919,70.202z"></path></g><g><path fill="#000000" d="M57.175,81.387c0,0,5.05-3.087,7.786-4.515c4.646-2.42,9.655-4.084,14.041-4.084H90.02v-5H79.477   c-1.976,0.037-3.824,0.274-5.553,0.688c-1.646,0.432-3.259,1.03-4.843,1.727C63.859,72.723,59.998,76.909,57.175,81.387z"></path></g></g></svg>